<svg xmlns="http://www.w3.org/2000/svg" viewBox="0 0 24 24">
  <path d="M12 2C10.722 2 9.3449375 3.961 8.5859375 7L15.414062 7C14.655062 3.961 13.278 2 12 2 z M 8.0605469 2.8105469C6.0765469 3.6645469 4.4295156 5.146 3.3535156 7L6.5117188 7C6.8677187 5.362 7.3965469 3.9385469 8.0605469 2.8105469 z M 15.939453 2.8105469C16.602453 3.9385469 17.132281 5.362 17.488281 7L20.646484 7C19.570484 5.146 17.923453 3.6645469 15.939453 2.8105469 z M 2.4609375 9C2.1629375 9.948 2 10.955 2 12C2 13.045 2.1629375 14.052 2.4609375 15L6.1816406 15C6.0676406 14.045 6 13.046 6 12C6 10.954 6.0676406 9.955 6.1816406 9L2.4609375 9 z M 8.2011719 9C8.0721719 9.939 8 10.945 8 12C8 13.055 8.0721719 14.061 8.2011719 15L15.798828 15C15.926828 14.061 16 13.055 16 12C16 10.945 15.927828 9.939 15.798828 9L8.2011719 9 z M 17.818359 9C17.932359 9.955 18 10.954 18 12C18 13.046 17.932359 14.045 17.818359 15L21.539062 15C21.838063 14.052 22 13.045 22 12C22 10.955 21.838062 9.948 21.539062 9L17.818359 9 z M 3.3535156 17C4.4295156 18.854 6.0765469 20.335453 8.0605469 21.189453C7.3975469 20.061453 6.8677188 18.638 6.5117188 17L3.3535156 17 z M 8.5859375 17C9.3449375 20.039 10.722 22 12 22C13.278 22 14.655063 20.039 15.414062 17L8.5859375 17 z M 17.488281 17C17.132281 18.638 16.603453 20.061453 15.939453 21.189453C17.923453 20.335453 19.570484 18.854 20.646484 17L17.488281 17 z" fill="#888888" />
</svg>